<svg width="456" height="244" viewBox="0 0 456 244" version="1.1" xmlns="http://www.w3.org/2000/svg" xmlns:xlink="http://www.w3.org/1999/xlink">
<title>Group</title>
<desc>Created using Figma</desc>
<g id="Canvas" transform="translate(778 -1119)">
<g id="Group">
<g id="Group">
<g id="Group">
<g id="Vector">
<use xlink:href="#path0_fill" transform="translate(-625.999 1172.66)" fill="#FFFFFF"/>
</g>
<g id="Vector">
<use xlink:href="#path1_fill" transform="translate(-778 1119.5)" fill="#FFFFFF"/>
</g>
</g>
</g>
</g>
</g>
<defs>
<path id="path0_fill" fill-rule="evenodd" d="M 75.9994 45.5625C 59.234 45.5625 45.5997 59.1857 45.5997 75.9375C 45.5997 80.1293 42.2025 83.5313 37.9997 83.5313C 33.7969 83.5313 30.3998 80.1293 30.3998 75.9375C 30.3998 50.8098 50.8512 30.375 75.9994 30.375C 80.2022 30.375 83.5994 33.777 83.5994 37.9687C 83.5994 42.1605 80.2022 45.5625 75.9994 45.5625ZM 75.9994 1.68593e-06C 34.0933 1.68593e-06 -6.21577e-06 34.0656 -6.21577e-06 75.9375C -6.21577e-06 117.809 34.0933 151.875 75.9994 151.875C 117.906 151.875 151.999 117.809 151.999 75.9375C 151.999 34.0656 117.906 1.68593e-06 75.9994 1.68593e-06Z"/>
<path id="path1_fill" fill-rule="evenodd" d="M 228 227.812C 197.441 227.812 170.088 213.87 151.955 192.031C 151.522 191.514 151.149 190.968 150.731 190.444C 149.28 188.614 147.859 186.761 146.536 184.832C 145.875 183.867 145.282 182.865 144.659 181.885C 143.686 180.359 142.721 178.825 141.832 177.238C 141.125 175.985 140.487 174.702 139.841 173.418C 139.149 172.044 138.465 170.677 137.842 169.272C 137.196 167.829 136.603 166.364 136.025 164.891C 135.509 163.569 135.015 162.233 134.551 160.881C 134.034 159.347 133.54 157.806 133.092 156.257C 132.681 154.837 132.332 153.401 131.982 151.959C 131.625 150.463 131.268 148.967 130.979 147.455C 130.652 145.716 130.409 143.955 130.174 142.193C 130.006 140.94 129.794 139.687 129.672 138.426C 129.383 135.351 129.201 132.245 129.201 129.094C 129.201 125.851 129.383 122.647 129.687 119.48C 129.824 118.075 130.082 116.693 130.28 115.304C 130.523 113.58 130.736 111.856 131.07 110.163C 131.412 108.424 131.868 106.723 132.301 105.006C 132.621 103.715 132.917 102.417 133.297 101.149C 133.852 99.2655 134.521 97.4126 135.189 95.5673C 135.569 94.527 135.919 93.4791 136.329 92.4615C 137.12 90.5099 138.001 88.5887 138.913 86.6903C 139.324 85.8322 139.719 84.9741 140.152 84.1312C 141.178 82.1416 142.295 80.1976 143.458 78.2688C 143.869 77.5853 144.271 76.8943 144.705 76.2261C 145.981 74.2289 147.342 72.2773 148.771 70.3713C 149.173 69.8245 149.576 69.2778 149.994 68.7386C 151.499 66.8022 153.095 64.919 154.752 63.0813C 172.847 43.0566 198.938 30.375 228 30.375C 257.062 30.375 283.153 43.0566 301.248 63.0813C 302.905 64.919 304.501 66.8022 306.006 68.7386C 306.424 69.2778 306.827 69.8245 307.229 70.3713C 308.658 72.2773 310.019 74.2289 311.295 76.2261C 311.729 76.8943 312.131 77.5853 312.542 78.2688C 313.705 80.1976 314.822 82.1416 315.848 84.1312C 316.281 84.9741 316.676 85.8322 317.087 86.6903C 317.999 88.5887 318.88 90.5099 319.671 92.4615C 320.081 93.4791 320.431 94.527 320.811 95.5673C 321.479 97.4126 322.148 99.2655 322.703 101.149C 323.083 102.417 323.379 103.715 323.698 105.006C 324.132 106.723 324.588 108.424 324.93 110.163C 325.264 111.856 325.477 113.58 325.72 115.304C 325.918 116.693 326.176 118.075 326.313 119.48C 326.617 122.647 326.799 125.851 326.799 129.094C 326.799 132.245 326.617 135.351 326.328 138.426C 326.206 139.687 325.994 140.94 325.826 142.193C 325.591 143.955 325.348 145.716 325.021 147.455C 324.732 148.967 324.375 150.463 324.018 151.959C 323.668 153.401 323.318 154.837 322.908 156.257C 322.46 157.806 321.966 159.347 321.449 160.881C 320.985 162.233 320.491 163.569 319.975 164.891C 319.397 166.364 318.804 167.829 318.158 169.272C 317.535 170.677 316.851 172.044 316.159 173.418C 315.513 174.702 314.875 175.985 314.168 177.238C 313.279 178.825 312.314 180.359 311.341 181.885C 310.718 182.865 310.125 183.867 309.464 184.832C 308.141 186.761 306.72 188.614 305.269 190.444C 304.851 190.968 304.478 191.514 304.045 192.031C 285.912 213.87 258.559 227.812 228 227.812ZM 454.691 3.33366C 453.278 1.25297 450.922 2.73837e-09 448.398 2.73837e-09L 334.399 2.73837e-09C 331.678 2.73837e-09 329.155 1.458 327.802 3.82725L 304.379 44.7803C 284.141 26.4566 257.397 15.1875 228 15.1875C 198.603 15.1875 171.859 26.4566 151.621 44.7803L 128.198 3.82725C 126.845 1.458 124.322 2.73837e-09 121.601 2.73837e-09L 7.60161 2.73837e-09C 5.07842 2.73837e-09 2.72244 1.25297 1.30885 3.33366C -0.104738 5.42194 -0.393536 8.07216 0.541257 10.4186L 8.5364 30.375L 60.8012 30.375C 65.004 30.375 68.4012 33.777 68.4012 37.9688C 68.4012 42.1605 65.004 45.5625 60.8012 45.5625L 14.6164 45.5625L 20.6963 60.75L 68.4012 60.75C 72.6039 60.75 76.0011 64.152 76.0011 68.3438C 76.0011 72.5355 72.6039 75.9375 68.4012 75.9375L 26.7763 75.9375L 32.8562 91.125L 83.601 91.125C 87.8038 91.125 91.201 94.527 91.201 98.7188C 91.201 102.91 87.8038 106.312 83.601 106.312L 38.9362 106.312L 57.0772 151.624C 60.1856 159.4 64.4264 166.652 69.6627 173.183C 85.8658 193.375 110.011 204.955 135.911 204.955L 143.2 204.955C 164.084 228.238 194.309 243 228 243C 261.691 243 291.916 228.238 312.8 204.955L 320.089 204.955C 345.989 204.955 370.134 193.375 386.337 173.183C 391.574 166.652 395.814 159.4 398.923 151.624L 417.064 106.312L 372.399 106.312C 368.196 106.312 364.799 102.91 364.799 98.7188C 364.799 94.527 368.196 91.125 372.399 91.125L 423.144 91.125L 429.224 75.9375L 387.599 75.9375C 383.396 75.9375 379.999 72.5355 379.999 68.3438C 379.999 64.152 383.396 60.75 387.599 60.75L 435.304 60.75L 441.384 45.5625L 395.199 45.5625C 390.996 45.5625 387.599 42.1605 387.599 37.9688C 387.599 33.777 390.996 30.375 395.199 30.375L 447.464 30.375L 455.459 10.4186C 456.394 8.07216 456.105 5.42194 454.691 3.33366Z"/>
</defs>
</svg>
